<svg xmlns="http://www.w3.org/2000/svg" xmlns:xlink="http://www.w3.org/1999/xlink" width="500" zoomAndPan="magnify" viewBox="0 0 375 374.999991" height="500" preserveAspectRatio="xMidYMid meet" version="1.0"><path fill="#f1f1f2" d="M 233.359375 91.230469 C 233.359375 91.230469 210.089844 82.265625 207.003906 99.742188 C 203.914062 117.214844 206.550781 127.007812 211.898438 131.453125 C 217.246094 135.898438 224.851562 138.15625 224.398438 130.097656 C 223.945312 122.039062 223.042969 110.890625 230.195312 112.695312 C 237.351562 114.503906 281.550781 135.972656 281.550781 135.972656 L 311.296875 174.011719 L 157.304688 236.15625 L 22.0625 153.75 C 19.050781 151.941406 15.585938 150.960938 12.046875 151.339844 C 6.777344 151.789062 0.449219 159.171875 2.03125 172.203125 C 4.742188 194.574219 12.121094 203.164062 15.210938 203.164062 C 21.609375 203.164062 21.460938 196.761719 20.105469 191.410156 C 18.75 186.0625 19.652344 178.90625 21.460938 179.8125 C 23.265625 180.714844 68.824219 208.886719 68.824219 208.886719 L 108.132812 264.328125 L 159.863281 297.394531 C 160.917969 299.203125 163.101562 300.257812 165.285156 299.503906 C 168.976562 298.296875 172.964844 299.730469 175 303.042969 L 175.152344 303.34375 C 177.183594 306.660156 181.324219 308.015625 184.863281 306.507812 L 237.199219 284.964844 C 249.851562 279.316406 249.171875 272.539062 255.648438 260.257812 L 267.46875 237.960938 C 268.976562 235.175781 271.460938 232.992188 274.550781 232.011719 L 276.882812 231.257812 C 280.121094 230.203125 283.660156 231.410156 285.617188 234.273438 L 293.074219 245.269531 C 296.160156 249.863281 302.183594 251.597656 307.230469 249.335938 L 349.097656 231.03125 C 353.238281 229.226562 356.25 225.609375 357.230469 221.242188 L 357.457031 220.261719 C 358.738281 214.839844 362.351562 210.394531 367.394531 208.058594 C 369.804688 206.929688 371.3125 204.667969 371.460938 202.03125 L 374.324219 148.628906 Z M 233.359375 91.230469 " fill-opacity="1" fill-rule="nonzero"/><path fill="#55aedf" d="M 240.8125 264.101562 L 187.199219 288.429688 C 182.304688 290.617188 176.808594 287.074219 176.808594 281.726562 L 176.808594 253.554688 C 176.808594 246.324219 181.175781 239.769531 187.800781 236.984375 L 241.941406 214.085938 C 246.761719 212.050781 252.183594 215.589844 252.183594 220.863281 L 252.183594 246.398438 C 252.257812 254.007812 247.816406 260.9375 240.8125 264.101562 Z M 240.8125 264.101562 " fill-opacity="1" fill-rule="nonzero"/><path fill="#e43f32" d="M 349.097656 214.6875 L 307.003906 234.273438 C 302.636719 236.304688 297.589844 233.066406 297.589844 228.246094 L 297.589844 205.875 C 297.589844 196.308594 303.464844 187.644531 312.351562 184.105469 L 353.917969 167.683594 C 357.15625 166.402344 360.695312 168.890625 360.542969 172.355469 L 359.640625 198.792969 C 359.339844 205.722656 355.273438 211.824219 349.097656 214.6875 Z M 349.097656 214.6875 " fill-opacity="1" fill-rule="nonzero"/><path fill="#939292" d="M 374.550781 148.476562 L 233.359375 91.230469 C 233.359375 91.230469 210.089844 82.265625 207.003906 99.742188 C 203.914062 117.214844 206.550781 127.007812 211.898438 131.453125 C 217.246094 135.898438 224.851562 138.15625 224.398438 130.097656 C 223.945312 122.039062 223.042969 110.890625 230.195312 112.695312 C 237.351562 114.503906 281.550781 135.972656 281.550781 135.972656 L 311.296875 174.011719 Z M 374.550781 148.476562 " fill-opacity="0.2" fill-rule="nonzero"/><path fill="#939292" d="M 157.378906 236.078125 L 22.0625 153.75 C 19.050781 151.941406 15.585938 150.960938 12.046875 151.339844 C 6.777344 151.789062 0.449219 159.171875 2.03125 172.203125 C 4.742188 194.574219 12.121094 203.164062 15.210938 203.164062 C 21.609375 203.164062 21.460938 196.761719 20.105469 191.410156 C 18.75 186.0625 19.652344 178.90625 21.460938 179.8125 C 23.265625 180.714844 68.824219 208.886719 68.824219 208.886719 L 108.132812 264.328125 L 159.863281 297.394531 Z M 157.378906 236.078125 " fill-opacity="0.18" fill-rule="nonzero"/></svg>